<svg id="clip-attachment.3" xmlns="http://www.w3.org/2000/svg" width="24" height="24" viewBox="0 0 24 24">
  <path id="Path_18714" data-name="Path 18714" d="M15,8l-3.206,3.206a2.537,2.537,0,0,0,0,3.588h0a2.537,2.537,0,0,0,3.588,0l4.338-4.338a4.367,4.367,0,0,0,0-6.177h0a4.367,4.367,0,0,0-6.177,0L4.278,13.544a4.367,4.367,0,0,0,0,6.177h0a4.367,4.367,0,0,0,6.177,0l1.632-1.632" fill="none" stroke="#000" stroke-linecap="round" stroke-linejoin="round" stroke-width="1.5"/>
  <path id="Path_18715" data-name="Path 18715" d="M0,24V0H24V24Z" fill="none"/>
</svg>
