<svg id="setting.3" xmlns="http://www.w3.org/2000/svg" width="24" height="24" viewBox="0 0 24 24">
  <g id="Group_2713" data-name="Group 2713" transform="translate(2.777 2.856)">
    <path id="Path_18708" data-name="Path 18708" d="M19.82,13.794l.04-.02v-.01a1.51,1.51,0,0,0,1.13-1.46v-.67a1.508,1.508,0,0,0-1.14-1.46l-.05-.02-.01-.01a1.674,1.674,0,0,1-1.21-2.021,1.465,1.465,0,0,1,.18-.45l.02-.04v-.01a1.527,1.527,0,0,0-.23-1.851l-.47-.47h0a1.514,1.514,0,0,0-1.841-.23l-.05.02v-.01a1.665,1.665,0,0,1-2.471-1.03L13.693,4h0a1.508,1.508,0,0,0-1.46-1.14h-.67a1.488,1.488,0,0,0-1.46,1.13l-.02.04v-.01a1.675,1.675,0,0,1-2.021,1.2,1.791,1.791,0,0,1-.45-.19L7.571,5l-.01-.01a1.511,1.511,0,0,0-1.851.22l-.47.46h-.01A1.5,1.5,0,0,0,5,7.5l.02.04-.01-.01A1.66,1.66,0,0,1,4.44,9.8a1.925,1.925,0,0,1-.45.18l-.05.01H3.93a1.488,1.488,0,0,0-1.14,1.45v.65H2.78a1.485,1.485,0,0,0,1.13,1.45l.04.01h0a1.655,1.655,0,0,1,1.2,2,1.89,1.89,0,0,1-.19.44l-.03.04v-.01a1.484,1.484,0,0,0,.22,1.831l.46.46L5.6,18.3a1.51,1.51,0,0,0,1.831.22l.04-.03h-.01a1.648,1.648,0,0,1,2.271.56,1.7,1.7,0,0,1,.18.44l.01.04-.01-.01a1.49,1.49,0,0,0,1.45,1.13h.65L12,20.646a1.505,1.505,0,0,0,1.45-1.14l.01-.05h-.01a1.653,1.653,0,0,1,2-1.21,1.571,1.571,0,0,1,.45.18l.04.02h0a1.5,1.5,0,0,0,1.831-.23l.46-.47h-.01a1.526,1.526,0,0,0,.22-1.841l-.03-.05-.01-.01a1.658,1.658,0,0,1,.56-2.281,1.433,1.433,0,0,1,.44-.19Z" transform="translate(-2.78 -2.859)" fill="none" stroke="#fff" stroke-linecap="round" stroke-linejoin="round" stroke-width="1.5"/>
    <path id="Path_18709" data-name="Path 18709" d="M11.988,9.92a2.073,2.073,0,1,0,0-.01Z" transform="translate(-2.775 -2.854)" fill="none" stroke="#fff" stroke-linecap="round" stroke-linejoin="round" stroke-width="1.5"/>
  </g>
  <path id="Path_18710" data-name="Path 18710" d="M0,0H24V24H0Z" fill="none"/>
</svg>
