<svg xmlns="http://www.w3.org/2000/svg" viewBox="0 0 98.51 127.91"><defs><style>.cls-1{fill:#9d9d9c;}</style></defs><g id="Layer_2" data-name="Layer 2"><g id="Layer_6" data-name="Layer 6"><path class="cls-1" d="M54.74,126.73a23.51,23.51,0,0,0,2-2.2c12.08-13.89,18.09-30,17.67-48.44,0-3.33.22-6.67,0-10-.76-9.29-5.75-15.92-14-19.68-8.54-3.88-16.95-2.8-24.48,2.89a23.1,23.1,0,0,0-9.46,20.94c.71,10.16-2.12,18.69-9.68,25.58a8.09,8.09,0,0,0-1,1.11c-.85,1.17-2.32,2.4-.54,3.79,1.26,1,2.43.25,3.48-.81C25.78,92.73,31.28,84.88,30.47,74a31.65,31.65,0,0,1,.82-10.91A20.06,20.06,0,0,1,51.46,48.44c9.45.62,17.83,7.49,18.69,16.47,1.91,20-1.33,38.82-14.78,54.78l-3.54,4.2c-1,1.15-1.32,2.42-.11,3.53S53.89,127.49,54.74,126.73Z"/><path class="cls-1" d="M39.81,127.47c1.33,1.16,2.47-.22,3.38-1.12,13.89-13.72,23.11-29.59,23-49.84-.22-3.65-.14-7.35-.72-10.94A15,15,0,0,0,50.23,53.08c-7.56.19-15,6.14-14.67,13.58C36.15,81.33,32.66,94,21.4,104c-1,.91-1.69,2.25-.29,3.44s2.43.12,3.4-.82C33.64,97.65,40,87.49,39.37,74.06a24.28,24.28,0,0,1,.57-8.43C41.5,60.55,46,57,51,57.25a10.71,10.71,0,0,1,10.37,9.67c1.07,12.25,0,24.2-5.47,35.53-3.84,7.93-9.59,14.33-15.41,20.74C39.28,124.49,38.1,126,39.81,127.47Z"/><path class="cls-1" d="M32.52,118.75c-1,1.12-2.28,2.45-1,3.88s2.7.29,3.79-.79C48.68,108.64,58.17,93.69,57.12,74c0-1,0-2,0-3-.1-5.74-2.37-8.89-6.46-9s-6.45,3-6.52,8.74c0,1.16,0,2.33,0,3.49,0,11.61-3.57,21.85-11.54,30.44-2.5,2.68-4.92,5.43-7.34,8.18-1,1.07-1.52,2.26-.14,3.45,1.22,1,2.24.28,3-.58,5.23-5.79,10.8-11.29,14.64-18.22,4.77-8.61,5.67-17.94,5.46-27.51,0-1.76.13-3.63,2.3-3.71,1.85-.06,2.34,1.65,2.38,3.22.39,12.85-1.22,25.18-9,36C40.46,110.24,36.4,114.41,32.52,118.75Z"/><path class="cls-1" d="M4.29,64.29c.1-.65.11-1.32.2-2,3.45-23.64,23.2-40.63,46.92-40.26a24.86,24.86,0,0,0,3,0c1.75-.2,4.62,1.27,4.79-1.71s-2.76-2.18-4.6-2.32a48.44,48.44,0,0,0-30,7.07C10.14,34,1.83,47,.24,64.07c-.14,1.49-1,3.73,1.62,3.86C4.16,68.05,4,65.89,4.29,64.29Z"/><path class="cls-1" d="M88.28,76.05c0,1.58.15,3.22,2.24,3.14,1.78-.06,1.84-1.59,1.86-3,0-1.84,0-3.67,0-5.5-.12-24.69-15.83-42.1-39.69-43.9-2.18-.16-5.76-1.33-6,1.49-.32,3.75,3.66,2.38,5.8,2.52C71,32.09,85.28,45.21,87.73,63.6,88.28,67.7,88.14,71.9,88.28,76.05Z"/><path class="cls-1" d="M38.39,10.1c-1.49.26-3.22.68-2.89,2.67.28,1.71,1.88,1.55,3.23,1.43.66-.06,1.33-.13,2-.24,18.47-3.07,34.51,1.86,48.21,14.57,1.26,1.17,2.72,3.22,4.51,1,1.5-1.83-.59-2.95-1.69-4C80.3,14.59,66.58,9.17,50.79,8.91A56.07,56.07,0,0,0,38.39,10.1Z"/><path class="cls-1" d="M6.61,85.92a10.67,10.67,0,0,0,1.58-1,12.11,12.11,0,0,0,4.64-10c-.48-11.63,1.53-22.5,9.57-31.54,1.11-1.24,1.7-2.71.08-3.86s-2.44.3-3.28,1.3A45.21,45.21,0,0,0,9.06,63.15C7.92,69.77,11,77.3,4.91,83,3.68,84.16,5,85.36,6.61,85.92Z"/><path class="cls-1" d="M83.07,85.88c.47-7.14.87-14.3.11-21.43a32.19,32.19,0,0,0-9.72-19.7c-1-1-2.11-1.84-3.45-.71s-.6,2.49.35,3.41c8.08,7.89,9.87,17.75,9.11,28.45-.18,3.16-.38,6.31-.54,9.47-.08,1.74-.88,4.16,1.65,4.47C83.27,90.18,83,87.55,83.07,85.88Z"/><path class="cls-1" d="M24.11,9.89C37,4.25,50.27,2.62,64.06,5.72c1.53.35,3.35.51,3.78-1.3.55-2.33-1.59-2.49-3.18-2.84A61.49,61.49,0,0,0,50.81,0,68.39,68.39,0,0,0,22.75,6c-1.53.69-3.41,1.28-2.49,3.48S22.84,10.45,24.11,9.89Z"/><path class="cls-1" d="M19.37,70.12c1.9.3,2.08-1.21,2.29-2.53a53.67,53.67,0,0,1,1-6.38C26,49.88,33.5,42.89,44.93,40.12c1.54-.37,3.28-.78,3-2.59S45.9,35.84,44.36,36C30.75,37.6,17.17,53.33,17.53,67.12,17.44,68.55,17.69,69.87,19.37,70.12Z"/><path class="cls-1" d="M4.14,34.47c1.62,1.36,2.76-.22,3.69-1.31A57.62,57.62,0,0,1,28.31,17.71c1-.45,2.14-1.05,2.06-2.75-.81-2.55-2.64-1.56-4.26-.81A59.31,59.31,0,0,0,4.91,30.28C3.87,31.52,2.26,32.89,4.14,34.47Z"/><path class="cls-1" d="M97.12,54.8c1.13-.35,1.39-1.31,1.39-2.68a46.19,46.19,0,0,0-10.7-17.91,2,2,0,0,0-2.74,0A1.72,1.72,0,0,0,85,36.89a57.26,57.26,0,0,1,9.81,16.59A1.87,1.87,0,0,0,97.12,54.8Z"/><path class="cls-1" d="M9.29,94.18A1.79,1.79,0,0,0,11.94,94c4.24-4.37,8.85-8.53,9.5-15.14-.15-1.4.73-3.15-1.23-3.86-1-.37-2.29,0-2.39,1.11-.65,6.37-4.72,10.7-8.69,15.12A1.86,1.86,0,0,0,9.29,94.18Z"/><path class="cls-1" d="M78.91,31.05c1.11.54,2.31.06,2.53-1.84-.17-.32-.33-1.06-.78-1.41a44.47,44.47,0,0,0-14-7.31c-.54-.18-1.63.44-2,1A1.65,1.65,0,0,0,65.33,24C69.83,26.41,74.33,28.82,78.91,31.05Z"/><path class="cls-1" d="M28.54,37.63a89.78,89.78,0,0,1,12.22-5.92,1.8,1.8,0,0,0,.69-2.21,1.8,1.8,0,0,0-2.32-1.34,40.47,40.47,0,0,0-12.43,6,1.78,1.78,0,0,0-.44,2.27A2.26,2.26,0,0,0,28.54,37.63Z"/><path class="cls-1" d="M75.61,107.88A1.86,1.86,0,0,0,78,106.59c1.08-2.94,2-6,3-8.77a2.34,2.34,0,0,0-1.46-2.54,1.8,1.8,0,0,0-2.35,1.29c-1,3-2,5.93-2.9,9A1.9,1.9,0,0,0,75.61,107.88Z"/><path class="cls-1" d="M63.45,42.25c1.36.33,2.16-.52,2.11-2.15-.16-.31-.27-.92-.62-1.13a18.67,18.67,0,0,0-10.31-3c-1,0-1.42.72-1.45,1.67a1.84,1.84,0,0,0,1.25,1.94C57.42,40.55,60.41,41.5,63.45,42.25Z"/><path class="cls-1" d="M81.11,11.64c1.08.56,2.12-.51,2.35-2.6-2-2.18-5.07-3.28-8.2-4.1-1.05-.27-2.27.46-2,1.58C74.31,10.45,78.34,10.2,81.11,11.64Z"/></g></g></svg>