<svg xmlns="http://www.w3.org/2000/svg" xmlns:xlink="http://www.w3.org/1999/xlink" width="112.561" height="184.01" viewBox="0 0 112.561 184.01">
  <defs>
    <linearGradient id="linear-gradient" y1="0.5" x2="1.001" y2="0.5" gradientUnits="objectBoundingBox">
      <stop offset="0.13" stop-color="#99e1e1"/>
      <stop offset="0.82" stop-color="#f6f6f6"/>
    </linearGradient>
    <linearGradient id="linear-gradient-2" y1="0.5" x2="1" y2="0.5" gradientUnits="objectBoundingBox">
      <stop offset="0.82" stop-color="#f6f6f6"/>
      <stop offset="1" stop-color="#99e1e1"/>
    </linearGradient>
  </defs>
  <g id="BUN_HOLDING-LOGO-01" data-name="BUN HOLDING-LOGO-01" transform="translate(-156.32 -120.6)">
    <g id="Group_2775" data-name="Group 2775">
      <g id="Group_2761" data-name="Group 2761">
        <g id="Group_2759" data-name="Group 2759">
          <path id="Path_18716" data-name="Path 18716" d="M243.72,289.5a17.929,17.929,0,0,0-1.15-3.52l-3.42,2.71c.17.34.34.72.5,1.13s.31.83.46,1.25.28.86.4,1.3.22.84.3,1.23a4.325,4.325,0,0,1-.96.31,9.537,9.537,0,0,1-1.03.16c-.33.03-.62.04-.87.04H204.87a2.182,2.182,0,0,1-1.67-.53,2.381,2.381,0,0,1-.47-1.61v-7.7a21.071,21.071,0,0,0-.16-2.82,5.958,5.958,0,0,0-.7-2.17l-3.14,2.85a9.847,9.847,0,0,1,.36,1.53c.09.56.16,1.14.21,1.75.04.42.07.86.08,1.32s.03,1,.04,1.6.01,1.3.01,2.09v2.82a10.134,10.134,0,0,0,.24,2.27,4.7,4.7,0,0,0,.83,1.81,3.9,3.9,0,0,0,1.57,1.2,6.214,6.214,0,0,0,2.49.43h32.56a11.005,11.005,0,0,0,1.5-.1,13.591,13.591,0,0,0,1.41-.27,6.383,6.383,0,0,0,1.17-.41,2.767,2.767,0,0,0,.77-.5,4.934,4.934,0,0,0,.63-.87c.25-.41.48-.85.71-1.31a12.311,12.311,0,0,0,.57-1.35,3.472,3.472,0,0,0,.23-1.03A15.5,15.5,0,0,0,243.72,289.5Z" fill="#f3f3f3"/>
          <path id="Path_18717" data-name="Path 18717" d="M197.66,288.78c-.09-.74-.21-1.54-.38-2.41a26.006,26.006,0,0,0-.69-2.69l-3.56,2.14c.34,1.45.61,2.78.81,4.02s.35,2.41.44,3.54a14.906,14.906,0,0,1-2.86.74,19.426,19.426,0,0,1-3.09.26,8.125,8.125,0,0,1-1.24-.09,7.416,7.416,0,0,1-1.07-.23,5.539,5.539,0,0,1-.81-.31.989.989,0,0,1-.44-.37,2.54,2.54,0,0,1-.31-.78,4.647,4.647,0,0,1-.11-1.13,10.192,10.192,0,0,1,.23-1.95,21.224,21.224,0,0,1,.77-2.69l-2.57-.85a21.711,21.711,0,0,0-1.2,3.39,14.531,14.531,0,0,0-.48,3.65,8.668,8.668,0,0,0,.26,2.22,5.4,5.4,0,0,0,.85,1.85,5.047,5.047,0,0,0,2.02,1.47,9.15,9.15,0,0,0,3.82.67,16.758,16.758,0,0,0,2.69-.21,15.379,15.379,0,0,0,2.38-.57,12.558,12.558,0,0,0,1.88-.78,4.213,4.213,0,0,0,1.17-.86,4.377,4.377,0,0,0,.43-.68,11.391,11.391,0,0,0,.57-1.2,12.674,12.674,0,0,0,.5-1.43,5.116,5.116,0,0,0,.21-1.4c0-.32-.01-.77-.04-1.34S197.75,289.52,197.66,288.78Z" fill="#f3f3f3"/>
          <rect id="Rectangle_1268" data-name="Rectangle 1268" width="3.46" height="3.4" transform="translate(187.67 286.27)" fill="#f3f3f3"/>
          <rect id="Rectangle_1269" data-name="Rectangle 1269" width="3.46" height="3.4" transform="translate(229.32 301.21)" fill="#f3f3f3"/>
        </g>
        <g id="Group_2760" data-name="Group 2760">
          <path id="Path_18718" data-name="Path 18718" d="M191.81,263.49l-3.41,1.1-.1.8,3.41-1.09Z" fill="#f3f3f3"/>
          <path id="Path_18719" data-name="Path 18719" d="M209.72,271.52c-.08-.29-.18-.59-.29-.9a6.911,6.911,0,0,0-.38-.87l-.85.8a5.7,5.7,0,0,1,.29.6c.1.24.19.49.29.77a7.763,7.763,0,0,1,.24.86c.07.3.12.59.16.88a3.415,3.415,0,0,1-.68.25c-.24.06-.48.11-.73.15s-.47.06-.69.08-.41.03-.57.03h-2.23c-.28,0-.53-.01-.77-.03a1.505,1.505,0,0,1-.62-.19,1.251,1.251,0,0,1-.44-.47,2.264,2.264,0,0,1-.24-.87l-.24-2.09-.86.52c.03.23.06.47.09.73s.05.51.07.75.04.48.06.7.03.4.03.55a3.562,3.562,0,0,1-1.12.32,10.131,10.131,0,0,1-1.22.08h-3.17a2.9,2.9,0,0,1-.62-.06,1.714,1.714,0,0,1-.55-.22,4.027,4.027,0,0,1-.59-.45,7.419,7.419,0,0,1-.69-.74c-.27-.3-.59-.67-.98-1.1s-.81-.88-1.27-1.35-.95-.93-1.47-1.39a16.762,16.762,0,0,0-1.56-1.23l5.23-1.7.26-1.18-5.09,1.63a1.326,1.326,0,0,0-.9.8,3.83,3.83,0,0,0-.21,1.31,17.181,17.181,0,0,1,3.04,2.69,4.944,4.944,0,0,1,1.2,2.4,4.586,4.586,0,0,1-1.07.42c-.44.11-.9.21-1.38.29s-.97.14-1.44.17-1.48.05-1.85.05c-.32,0-.68-.01-1.07-.04a9.606,9.606,0,0,1-1.12-.12,5.3,5.3,0,0,1-.95-.23,1.065,1.065,0,0,1-.57-.39,1.292,1.292,0,0,1-.2-.49,3.208,3.208,0,0,1-.06-.63,6.659,6.659,0,0,1,.1-1.07,9.836,9.836,0,0,1,.24-1l-.52-.26a6.877,6.877,0,0,0-.66,2.86,3.829,3.829,0,0,0,.12.93,2.187,2.187,0,0,0,.36.8,1.506,1.506,0,0,0,.58.44,3.989,3.989,0,0,0,.92.29,7.7,7.7,0,0,0,1.17.16c.43.04.87.05,1.32.05.54,0,1.65-.03,2.18-.08a13.351,13.351,0,0,0,1.51-.22,9.031,9.031,0,0,0,1.32-.35,4.531,4.531,0,0,0,1.01-.48,1.114,1.114,0,0,0,.26-.24,1.948,1.948,0,0,0,.25-.4,4.177,4.177,0,0,0,.2-.51,1.981,1.981,0,0,0,.09-.6c.31.4.59.76.84,1.07a5.76,5.76,0,0,0,.76.79,2.834,2.834,0,0,0,.83.49,2.961,2.961,0,0,0,1.05.17h2.91a8.412,8.412,0,0,0,1.58-.13,2.464,2.464,0,0,0,1.02-.39,3.25,3.25,0,0,0,.47-.61,1.669,1.669,0,0,0,.83.88,3.69,3.69,0,0,0,1.47.24h2.48v-.01a9.516,9.516,0,0,0,1.32-.13,2.744,2.744,0,0,0,1.28-.54,1.443,1.443,0,0,0,.22-.27,3.14,3.14,0,0,0,.26-.45,4.711,4.711,0,0,0,.21-.52,1.548,1.548,0,0,0,.09-.49,4.478,4.478,0,0,0-.06-.68C209.86,272.09,209.8,271.82,209.72,271.52Z" fill="#f3f3f3"/>
          <path id="Path_18720" data-name="Path 18720" d="M226.25,269.28c-.02-.66-.05-1.28-.08-1.88s-.07-1.11-.11-1.55a7.391,7.391,0,0,0-.13-.83,1.791,1.791,0,0,0-.22-.64l-.87.95a3.274,3.274,0,0,1,.14.5,6.99,6.99,0,0,1,.12.71c.05.33.09.76.13,1.29s.08,1.11.1,1.75.06,1.31.08,2.02.04,1.41.04,2.11a2.831,2.831,0,0,1-.92.32,6.8,6.8,0,0,1-1.42.13H218.5a2.229,2.229,0,0,1-1.25-.27,1.64,1.64,0,0,1-.58-.94q-.105-.36-.24-.9c-.09-.36-.2-.74-.32-1.14s-.25-.81-.39-1.23-.28-.79-.43-1.14l-.78.78a21.674,21.674,0,0,1,.83,2.25c.25.81.47,1.56.64,2.25v.02a7.345,7.345,0,0,1-1.38.37,7.693,7.693,0,0,1-1.37.13,4.339,4.339,0,0,1-.92-.08,1.209,1.209,0,0,1-.48-.2.422.422,0,0,1-.18-.27,1.428,1.428,0,0,1-.03-.29c0-.1,0-.22.01-.34s.02-.25.04-.38l-.61-.17a6.523,6.523,0,0,0-.14.74,5.409,5.409,0,0,0-.05.79,1.973,1.973,0,0,0,.09.62,1.1,1.1,0,0,0,.33.48,1.67,1.67,0,0,0,.67.3,4.736,4.736,0,0,0,1.1.1,8.739,8.739,0,0,0,.99-.06,5.658,5.658,0,0,0,.98-.2,3.635,3.635,0,0,0,.8-.34.956.956,0,0,0,.45-.49,1.749,1.749,0,0,0,.99.75,4.754,4.754,0,0,0,1.24.17h4.64c.17,0,.37-.01.59-.03s.44-.06.67-.1a4.315,4.315,0,0,0,.64-.19,1.752,1.752,0,0,0,.49-.28,1.452,1.452,0,0,0,.26-.31,3.422,3.422,0,0,0,.26-.47,3.133,3.133,0,0,0,.19-.54,1.876,1.876,0,0,0,.07-.5c0-.54-.01-1.14-.02-1.79S226.28,269.94,226.25,269.28Z" fill="#f3f3f3"/>
          <rect id="Rectangle_1270" data-name="Rectangle 1270" width="1.46" height="1.44" transform="translate(206.29 276.79)" fill="#f3f3f3"/>
          <rect id="Rectangle_1271" data-name="Rectangle 1271" width="1.46" height="1.44" transform="translate(204.16 276.79)" fill="#f3f3f3"/>
          <rect id="Rectangle_1272" data-name="Rectangle 1272" width="1.46" height="1.44" transform="translate(197.18 268.03)" fill="#f3f3f3"/>
        </g>
      </g>
      <g id="bun" transform="translate(155.24 119.52)">
        <path id="Path_18740" data-name="Path 18740" d="M73.333,31.166l.248,17.522a39.146,39.146,0,1,1-7.52,72.522h0a47.78,47.78,0,1,0,39.547-86.785h-.065a56.58,56.58,0,0,0-32.209-3.259" transform="translate(-26.683 -11.939)" fill="url(#linear-gradient)"/>
        <path id="Path_18741" data-name="Path 18741" d="M52.461,74.48a4.886,4.886,0,1,1,1.429,3.465,4.892,4.892,0,0,1-1.429-3.465M1.08,1.08V74.475h0A56.279,56.279,0,1,0,95.108,32.759,47.775,47.775,0,0,1,39.4,109.283h0A39.134,39.134,0,0,1,18.219,74.51v-56.3h8.776a8.334,8.334,0,0,1,8.334,8.328V74.48A22.019,22.019,0,1,0,57.347,52.461a22.3,22.3,0,0,0-4.892.548V26.052A24.96,24.96,0,0,0,27.5,1.08Z" fill="url(#linear-gradient-2)"/>
      </g>
    </g>
    <path id="Path_18723" data-name="Path 18723" d="M243.98,272.68a3.249,3.249,0,0,0-.46-.91,5.731,5.731,0,0,0-.87-.95,9.694,9.694,0,0,0-1.39-.99l-2.6-1.56-.52,1.21.54.3a4.189,4.189,0,0,0-.99,1.16,2.863,2.863,0,0,0-.41,1.49,1.936,1.936,0,0,0,.83,1.54,8.8,8.8,0,0,1-1.92.19h-10.4v1.3h10.14a9.978,9.978,0,0,0,1.96-.18,6.615,6.615,0,0,0,1.61-.53,20.225,20.225,0,0,0,2.16.89,4.021,4.021,0,0,0,1.05.25.777.777,0,0,0,.49-.21,2.255,2.255,0,0,0,.46-.54,3.225,3.225,0,0,0,.34-.75,2.741,2.741,0,0,0,.13-.85A3.988,3.988,0,0,0,243.98,272.68Zm-4.52.83a4,4,0,0,1-1.02-.67,1.052,1.052,0,0,1-.38-.75,1.265,1.265,0,0,1,.15-.53,2.923,2.923,0,0,1,.37-.57,2.345,2.345,0,0,1,.5-.45.968.968,0,0,1,.54-.18.71.71,0,0,1,.41.17,1.972,1.972,0,0,1,.4.45,2.886,2.886,0,0,1,.3.61,2.019,2.019,0,0,1,.12.67,2.08,2.08,0,0,1-.48.62A4.006,4.006,0,0,1,239.46,273.51Zm3.53,1.34a3.018,3.018,0,0,1-.71-.18c-.36-.12-.91-.34-1.66-.67a3.385,3.385,0,0,0,.75-.96,2.567,2.567,0,0,0,.26-1.13,3.288,3.288,0,0,0-.05-.54,4.948,4.948,0,0,1,.62.49,4,4,0,0,1,.53.56,2.478,2.478,0,0,1,.37.65,2.029,2.029,0,0,1,.14.74A2.682,2.682,0,0,1,242.99,274.85Z" fill="#f3f3f3"/>
    <path id="Path_18724" data-name="Path 18724" d="M226.16,275.46s-.87.02-.87-.55a.945.945,0,0,1,.61-.8l.39.22" fill="#f3f3f3"/>
  </g>
</svg>
